<svg width="18" height="18" viewBox="0 0 18 18" fill="none" xmlns="http://www.w3.org/2000/svg">
<path d="M4.8269 1.72314V2.75635H4.16968C3.17952 2.75635 2.37378 3.56208 2.37378 4.55225V4.94189C2.3738 5.19243 2.42526 5.43526 2.52612 5.66455L3.85913 8.69482C4.25257 9.589 5.1381 10.1665 6.11499 10.1665C7.09177 10.1664 7.97741 9.58893 8.37085 8.69482L9.70386 5.66455C9.80466 5.43532 9.85618 5.19235 9.8562 4.94189V4.55225C9.8562 3.56222 9.05028 2.75657 8.0603 2.75635H7.40308V1.72314H8.0603C9.62008 1.72338 10.8884 2.99242 10.8884 4.55225V4.94189C10.8884 5.33632 10.808 5.71954 10.6492 6.08057L9.31616 9.11084C8.82824 10.2198 7.80658 10.9831 6.63159 11.1587V11.7739C6.63159 13.6872 8.18798 15.2446 10.1013 15.2446C12.0146 15.2446 13.571 13.6872 13.571 11.7739V9.7915C12.8262 9.56847 12.281 8.87885 12.281 8.06201C12.2812 7.06579 13.0914 6.25552 14.0876 6.25537C15.084 6.25537 15.8951 7.0657 15.8953 8.06201C15.8953 8.87913 15.3495 9.56969 14.6042 9.79248V11.7739C14.6042 14.257 12.5844 16.2778 10.1013 16.2778C7.61817 16.2778 5.59839 14.257 5.59839 11.7739V11.1587C4.42315 10.9833 3.40085 10.22 2.91284 9.11084L1.57983 6.08057C1.42106 5.71958 1.3406 5.3363 1.34058 4.94189V4.55225C1.34058 2.99228 2.60971 1.72314 4.16968 1.72314H4.8269ZM14.0876 7.28857C13.6612 7.28872 13.3144 7.63563 13.3142 8.06201C13.3142 8.48854 13.6611 8.83628 14.0876 8.83643C14.5143 8.83643 14.8621 8.48863 14.8621 8.06201C14.8619 7.63554 14.5142 7.28857 14.0876 7.28857Z" fill="#475467" stroke="#475467" stroke-width="0.191504"/>
</svg>
