<svg width="24" height="24" viewBox="0 0 24 24" fill="none" xmlns="http://www.w3.org/2000/svg">
<path d="M13.3333 11.3335H9.33332M10.6667 14.0002H9.33332M14.6667 8.66683H9.33332M17.3333 8.5335V15.4668C17.3333 16.5869 17.3333 17.147 17.1153 17.5748C16.9236 17.9511 16.6176 18.2571 16.2413 18.4488C15.8135 18.6668 15.2534 18.6668 14.1333 18.6668H9.86666C8.74655 18.6668 8.1865 18.6668 7.75868 18.4488C7.38235 18.2571 7.07639 17.9511 6.88464 17.5748C6.66666 17.147 6.66666 16.5869 6.66666 15.4668V8.5335C6.66666 7.41339 6.66666 6.85334 6.88464 6.42552C7.07639 6.04919 7.38235 5.74323 7.75868 5.55148C8.1865 5.3335 8.74655 5.3335 9.86666 5.3335H14.1333C15.2534 5.3335 15.8135 5.3335 16.2413 5.55148C16.6176 5.74323 16.9236 6.04919 17.1153 6.42552C17.3333 6.85334 17.3333 7.41339 17.3333 8.5335Z" stroke="#667085" stroke-width="1.4" stroke-linecap="round" stroke-linejoin="round"/>
</svg>
