<svg width="33" height="32" viewBox="0 0 33 32" fill="none" xmlns="http://www.w3.org/2000/svg">
<rect x="0.809845" width="32" height="32" rx="8" fill="#1067FF"/>
<path fill-rule="evenodd" clip-rule="evenodd" d="M9.76219 8H16.8098C21.2098 8 24.8099 11.6 24.8099 16.0001V23.0477C24.8099 23.3096 24.7027 23.5477 24.5301 23.7203L24.5164 23.7336L24.5136 23.7363L24.5301 23.7203C24.5301 23.7203 23.3743 20.9105 20.6428 17.5166H21.1356C21.4443 17.5166 21.6967 17.2641 21.6967 16.9556V15.0444C21.6967 14.7358 21.4443 14.4834 21.1356 14.4834H18.3263V11.6741C18.3263 11.3655 18.0738 11.113 17.7651 11.113H15.8541C15.5454 11.113 15.2929 11.3655 15.2929 11.6741V12.2515C14.93 11.9704 14.5557 11.6927 14.1684 11.42C14.5574 11.7489 14.9315 12.0784 15.2929 12.4075V14.4833H12.4838C12.1752 14.4833 11.9226 14.7357 11.9226 15.0443V16.9555C11.9226 17.264 12.1751 17.5165 12.4838 17.5165H15.2929V20.3258C15.2929 20.6344 15.5454 20.8868 15.8541 20.8868H17.7651C18.0738 20.8868 18.3263 20.6344 18.3263 20.3258V17.5165H19.9966C22.8168 21.2007 23.8574 24 23.8574 24H16.8097C12.4098 24.0002 8.80978 20.4002 8.80978 16.0001V8.95241C8.80978 8.42861 9.23839 8 9.76219 8Z" fill="white"/>
</svg>
